<svg width="50" height="43" viewBox="0 0 50 43" fill="none" xmlns="http://www.w3.org/2000/svg">
<path fill-rule="evenodd" clip-rule="evenodd" d="M20.7072 0.0904423C19.642 0.299197 19.7437 0.205288 9.87368 10.0924C-0.766072 20.7504 0.0126988 19.8492 0.0126988 21.5047C0.0126988 23.1577 -0.713835 22.3181 9.92973 32.9653C19.932 42.9709 19.6171 42.6839 20.8564 42.9276C22.4359 43.2384 24.1503 42.3002 24.708 40.8198C24.8912 40.3338 24.9211 40.0919 24.8898 39.352C24.8236 37.7832 25.033 38.0449 19.0009 31.9911C16.0898 29.0695 13.4778 26.5006 13.1963 26.2825C12.915 26.0645 12.3445 25.7151 11.9286 25.5062L11.1724 25.1263L29.2169 25.1008L47.2613 25.0753L47.8975 24.7738C48.6769 24.4044 49.3586 23.741 49.7247 22.9955C49.9685 22.4991 50.0004 22.3265 50 21.5047C49.9996 20.6918 49.9662 20.5074 49.7333 20.0329C49.201 18.9483 48.2333 18.2072 47.0682 17.9918C46.6664 17.9176 41.1711 17.8846 28.9259 17.883L11.3602 17.8809L11.9471 17.5633C12.27 17.3887 12.7322 17.1068 12.9743 16.9369C13.2164 16.7669 15.8663 14.1704 18.8629 11.1671C23.2232 6.79691 24.3662 5.59877 24.5856 5.16825C24.8345 4.68002 24.8598 4.53514 24.8598 3.60308C24.8598 2.69645 24.8294 2.51108 24.6008 2.02343C24.1366 1.03346 23.2282 0.334805 22.0915 0.0935728C21.5069 -0.0304671 21.3256 -0.0308586 20.7072 0.0904423Z" fill="#fff"/>
</svg>
