<svg width="18" height="18" viewBox="0 0 18 18" fill="none" xmlns="http://www.w3.org/2000/svg">
<mask id="mask0_1643_18374" style="mask-type:alpha" maskUnits="userSpaceOnUse" x="0" y="0" width="18" height="18">
<rect width="18" height="18" fill="#D9D9D9"/>
</mask>
<g mask="url(#mask0_1643_18374)">
<path d="M5.24951 15.75C4.83701 15.75 4.48389 15.6031 4.19014 15.3094C3.89639 15.0156 3.74951 14.6625 3.74951 14.25V4.5H2.99951V3H6.74951V2.25H11.2495V3H14.9995V4.5H14.2495V14.25C14.2495 14.6625 14.1026 15.0156 13.8089 15.3094C13.5151 15.6031 13.162 15.75 12.7495 15.75H5.24951ZM6.74951 12.75H8.24951V6H6.74951V12.75ZM9.74951 12.75H11.2495V6H9.74951V12.75Z" fill="#1C1B1F"/>
<path d="M5.24951 15.75C4.83701 15.75 4.48389 15.6031 4.19014 15.3094C3.89639 15.0156 3.74951 14.6625 3.74951 14.25V4.5H2.99951V3H6.74951V2.25H11.2495V3H14.9995V4.5H14.2495V14.25C14.2495 14.6625 14.1026 15.0156 13.8089 15.3094C13.5151 15.6031 13.162 15.75 12.7495 15.75H5.24951ZM6.74951 12.75H8.24951V6H6.74951V12.75ZM9.74951 12.75H11.2495V6H9.74951V12.75Z" fill="white"/>
</g>
</svg>
