<svg width="30" height="27" viewBox="0 0 30 27" fill="none" xmlns="http://www.w3.org/2000/svg">
<path fill-rule="evenodd" clip-rule="evenodd" d="M7.11938 0.0817422C4.43492 0.457584 2.05842 2.163 0.835646 4.59102C0.547141 5.16393 0.195801 6.26554 0.0881245 6.93469C-0.0165038 7.58456 -0.0295164 8.72311 0.0574101 9.60837C0.213796 11.2005 0.255471 11.4974 0.407344 12.1027C1.34572 15.8425 4.55326 19.7154 9.7998 23.4437C11.2156 24.4498 13.4323 25.8168 14.6117 26.411L15.0115 26.6125L15.784 26.2079C19.6054 24.2059 23.5334 21.2609 25.8588 18.654C27.8325 16.4416 29.0657 14.2977 29.5992 12.1514C29.9496 10.7418 30.1097 8.12447 29.9182 6.93469C29.8105 6.26554 29.4591 5.16393 29.1706 4.59102C27.3659 1.0074 23.1189 -0.842797 19.4872 0.372416C18.2189 0.796849 17.2078 1.43634 16.1447 2.48661C15.7531 2.87347 15.336 3.30869 15.2179 3.45376L15.0031 3.71753L14.7884 3.45376C14.6703 3.30869 14.2532 2.87347 13.8616 2.48661C11.897 0.5458 9.6161 -0.267781 7.11938 0.0817422Z" fill="url(#paint0_linear_61_23)"/>
<defs>
<linearGradient id="paint0_linear_61_23" x1="29.5984" y1="2.16423" x2="6.53323" y2="23.7347" gradientUnits="userSpaceOnUse">
<stop offset="0.0283295" stop-color="#DFBC77"/>
<stop offset="1" stop-color="#FBE8BE"/>
</linearGradient>
</defs>
</svg>
