<svg width="50" height="48" viewBox="0 0 50 48" fill="none" xmlns="http://www.w3.org/2000/svg">
<path fill-rule="evenodd" clip-rule="evenodd" d="M25.6828 0.25392C25.2919 0.460738 25.0678 0.665798 24.8528 1.01323L24.5584 1.48916L24.5096 4.72442L24.4607 7.95968L23.9296 8.63824C22.8282 10.0456 19.4887 13.8205 15.6841 17.9587L14.6517 19.0817L14.6494 31.93L14.6471 44.7783L16.771 45.5664C20.0688 46.79 21.0065 47.0676 23.036 47.4202C23.8536 47.5622 25.1321 47.5875 33.1025 47.6193C39.7333 47.6457 42.392 47.6248 42.8146 47.543C44.0296 47.3079 45.2775 46.4537 45.9881 45.3709C47.0112 43.8122 47.0645 41.764 46.1243 40.1444L45.8807 39.7248L46.4738 39.0908C47.4345 38.0639 47.8481 37.0382 47.8462 35.6884C47.8448 34.747 47.6872 34.103 47.2638 33.3085L46.9494 32.7187L47.4788 32.1808C48.0742 31.5758 48.531 30.7844 48.7773 29.9309C49.106 28.7923 48.843 27.034 48.1981 26.0595L47.9608 25.701L48.3782 25.3521C49.6693 24.2728 50.3254 22.0467 49.8398 20.3933C49.3189 18.6197 47.9038 17.2464 46.1782 16.8397C45.6569 16.7167 44.571 16.6919 39.6628 16.6907C34.0983 16.6894 33.7759 16.6798 33.8271 16.5184C33.857 16.4244 34.2144 15.205 34.6215 13.8087L35.3616 11.2698L35.3168 9.26806C35.2697 7.16327 35.21 6.79387 34.6943 5.42055C34.1662 4.01433 32.7869 2.33421 31.4129 1.42374C30.1572 0.591781 28.7101 0.112233 27.1949 0.0260105C26.2538 -0.0275004 26.199 -0.0192003 25.6828 0.25392ZM0 31.19V46.6671H5.85886H11.7177V31.19V15.7128H5.85886H0V31.19Z" fill="white"/>
</svg>
