<svg width="35" height="35" viewBox="0 0 35 35" fill="none" xmlns="http://www.w3.org/2000/svg">
<path fill-rule="evenodd" clip-rule="evenodd" d="M19.8596 0.0745668C26.1599 0.861364 31.5123 4.93652 33.8293 10.7108C34.745 12.9928 35.1613 15.6994 34.943 17.953C34.5705 21.7996 33.0111 25.1489 30.2901 27.9467C29.9201 28.3271 29.5954 28.7237 29.5685 28.828C29.5416 28.9324 29.7054 29.9785 29.9325 31.1527C30.3941 33.5393 30.3947 33.7746 29.942 34.3836C29.6146 34.8241 29.2043 35 28.5044 35H27.9308L25.538 33.7424C24.222 33.0507 23.0517 32.4849 22.9374 32.4849C22.8231 32.4849 22.3881 32.5709 21.9707 32.6762C20.2784 33.1027 19.7199 33.1614 17.3604 33.1608C15.0002 33.1601 14.5519 33.1124 12.8421 32.6795C5.36257 30.7859 0.0043446 24.0751 1.70968e-06 16.5956C-0.00491477 8.24811 6.55023 1.11583 15.1868 0.0716922C15.9892 -0.0253201 19.0752 -0.0234035 19.8596 0.0745668ZM23.6085 15.1446C22.6335 15.574 22.1419 16.6039 22.4381 17.5965C22.6124 18.1806 23.2383 18.8231 23.7872 18.9812C25.1924 19.3862 26.5788 18.446 26.5788 17.0883C26.5788 16.4082 26.429 16.0453 25.9576 15.5832C25.2861 14.9249 24.4583 14.7704 23.6085 15.1446ZM16.4932 15.2097C15.9789 15.4824 15.6427 15.8665 15.467 16.3819C15.1336 17.36 15.6452 18.4896 16.6163 18.9194C17.0616 19.1163 17.9028 19.1174 18.3455 18.9214C19.5788 18.3755 19.9917 16.8211 19.1791 15.783C18.525 14.9474 17.4289 14.7134 16.4932 15.2097ZM9.89458 15.0368C8.66095 15.3938 8.02591 16.8147 8.59909 17.9354C9.27478 19.2567 11.0749 19.4804 12.0799 18.368C12.822 17.5464 12.7867 16.3431 11.9978 15.5744C11.3986 14.9904 10.6851 14.8081 9.89458 15.0368Z" fill="#EE4236"/>
</svg>
