<svg width="25" height="28" viewBox="0 0 25 28" fill="none" xmlns="http://www.w3.org/2000/svg">
<path fill-rule="evenodd" clip-rule="evenodd" d="M6.35593 0.11905C6.21252 0.185412 6.01604 0.324135 5.91936 0.427264C5.60522 0.76227 5.54107 1.02029 5.54107 1.94904V2.79858L4.67731 2.80086C4.20228 2.8021 3.57888 2.84493 3.29211 2.89604C2.63475 3.01312 1.85567 3.39278 1.35645 3.83932C0.954759 4.19865 0.479465 4.8725 0.297327 5.34095C-0.000652092 6.10738 1.23829e-08 6.08613 1.23829e-08 15.3149C1.23829e-08 24.5436 -0.000652092 24.5224 0.297327 25.2888C0.776923 26.5222 1.99765 27.5078 3.3307 27.7379C3.80906 27.8205 5.16884 27.8316 12.7824 27.8157C21.0225 27.7984 21.7033 27.7887 22.0553 27.6832C23.4692 27.2598 24.4999 26.217 24.8866 24.819C24.9919 24.4382 25 23.756 25 15.3149C25 6.87374 24.9919 6.19154 24.8866 5.81077C24.499 4.40947 23.4357 3.33704 22.0553 2.95529C21.8101 2.88743 21.2881 2.83808 20.5834 2.81605L19.4915 2.78189V1.94069C19.4915 1.02088 19.4267 0.761553 19.1132 0.427264C18.5235 -0.201615 17.401 -0.116348 16.9076 0.594734C16.7258 0.856925 16.7205 0.888411 16.7 1.83117L16.679 2.79858H12.5163H8.35359L8.3326 1.83117C8.31213 0.888411 8.30685 0.856925 8.12497 0.594734C7.75509 0.0616184 6.9485 -0.155331 6.35593 0.11905ZM20.9817 5.66429C21.5067 5.74017 21.843 5.95692 22.0277 6.33861C22.1397 6.5699 22.1759 6.7993 22.2087 7.48372L22.2496 8.33965H12.5165H2.78344L2.82125 7.48978C2.85189 6.80054 2.88605 6.58404 3.00196 6.34467C3.18038 5.97609 3.53273 5.73489 3.98996 5.66827C4.48775 5.59571 20.4816 5.592 20.9817 5.66429ZM22.2158 17.5476L22.1969 23.9524L22.0423 24.2664C21.8414 24.6745 21.5173 24.888 20.9817 24.9655C20.436 25.0444 4.59661 25.0444 4.05091 24.9655C3.51525 24.888 3.1912 24.6745 2.99029 24.2664L2.83572 23.9524L2.81675 17.5476L2.79772 11.1428H12.5163H22.2349L22.2158 17.5476ZM6.5032 13.9735C6.13748 14.104 5.95104 14.2462 5.7528 14.5457C5.59615 14.7824 5.57366 14.8798 5.57366 15.3208C5.57366 15.7775 5.59244 15.8519 5.7721 16.1078C6.26702 16.8127 7.26656 16.9441 7.88488 16.3855C8.2204 16.0823 8.35724 15.773 8.35724 15.3177C8.35724 14.3258 7.42001 13.6462 6.5032 13.9735ZM12.1098 13.9418C11.7655 14.0528 11.4705 14.2861 11.2934 14.5872C11.0384 15.0211 11.0393 15.6103 11.2958 16.0465C11.5585 16.4935 11.9647 16.7164 12.5163 16.7164C12.8621 16.7164 12.9966 16.6832 13.2479 16.5354C14.1473 16.0068 14.1583 14.6284 13.2673 14.1062C12.9529 13.922 12.4104 13.8449 12.1098 13.9418ZM17.5704 13.9808C17.0162 14.192 16.6884 14.6878 16.6884 15.3149C16.6884 16.6049 18.1671 17.2277 19.0757 16.3204C19.4051 15.9915 19.5147 15.6802 19.4784 15.1773C19.4443 14.7063 19.195 14.3128 18.7883 14.0879C18.4409 13.8958 17.9147 13.8496 17.5704 13.9808ZM6.35593 19.5788C5.45176 19.9795 5.2633 21.2822 6.01415 21.9415C6.48683 22.3565 7.17477 22.4024 7.73475 22.0562C8.63286 21.501 8.56323 20.0981 7.61343 19.611C7.32621 19.4637 6.65437 19.4465 6.35593 19.5788ZM11.897 19.595C10.9174 20.1098 10.8216 21.4251 11.7179 22.055C11.928 22.2026 12.0862 22.2558 12.3787 22.2769C12.8816 22.3133 13.193 22.2037 13.5218 21.8743C14.2122 21.1829 14.0325 20.0583 13.1607 19.6135C12.8509 19.4555 12.1812 19.4456 11.897 19.595ZM17.4381 19.5919C16.8834 19.8941 16.6656 20.2953 16.6988 20.9537C16.7294 21.5587 16.9231 21.8746 17.4139 22.1191C18.6903 22.7552 19.9566 21.4889 19.3205 20.2125C19.0696 19.7089 18.7594 19.5244 18.1273 19.5024C17.7677 19.49 17.5806 19.5142 17.4381 19.5919Z" fill="#D55C18"/>
<path fill-rule="evenodd" clip-rule="evenodd" d="M6.35593 0.11905C6.21252 0.185412 6.01604 0.324135 5.91936 0.427264C5.60522 0.76227 5.54107 1.02029 5.54107 1.94904V2.79858L4.67731 2.80086C4.20228 2.8021 3.57888 2.84493 3.29211 2.89604C2.63475 3.01312 1.85567 3.39278 1.35645 3.83932C0.954759 4.19865 0.479465 4.8725 0.297327 5.34095C-0.000652092 6.10738 1.23829e-08 6.08613 1.23829e-08 15.3149C1.23829e-08 24.5436 -0.000652092 24.5224 0.297327 25.2888C0.776923 26.5222 1.99765 27.5078 3.3307 27.7379C3.80906 27.8205 5.16884 27.8316 12.7824 27.8157C21.0225 27.7984 21.7033 27.7887 22.0553 27.6832C23.4692 27.2598 24.4999 26.217 24.8866 24.819C24.9919 24.4382 25 23.756 25 15.3149C25 6.87374 24.9919 6.19154 24.8866 5.81077C24.499 4.40947 23.4357 3.33704 22.0553 2.95529C21.8101 2.88743 21.2881 2.83808 20.5834 2.81605L19.4915 2.78189V1.94069C19.4915 1.02088 19.4267 0.761553 19.1132 0.427264C18.5235 -0.201615 17.401 -0.116348 16.9076 0.594734C16.7258 0.856925 16.7205 0.888411 16.7 1.83117L16.679 2.79858H12.5163H8.35359L8.3326 1.83117C8.31213 0.888411 8.30685 0.856925 8.12497 0.594734C7.75509 0.0616184 6.9485 -0.155331 6.35593 0.11905ZM20.9817 5.66429C21.5067 5.74017 21.843 5.95692 22.0277 6.33861C22.1397 6.5699 22.1759 6.7993 22.2087 7.48372L22.2496 8.33965H12.5165H2.78344L2.82125 7.48978C2.85189 6.80054 2.88605 6.58404 3.00196 6.34467C3.18038 5.97609 3.53273 5.73489 3.98996 5.66827C4.48775 5.59571 20.4816 5.592 20.9817 5.66429ZM22.2158 17.5476L22.1969 23.9524L22.0423 24.2664C21.8414 24.6745 21.5173 24.888 20.9817 24.9655C20.436 25.0444 4.59661 25.0444 4.05091 24.9655C3.51525 24.888 3.1912 24.6745 2.99029 24.2664L2.83572 23.9524L2.81675 17.5476L2.79772 11.1428H12.5163H22.2349L22.2158 17.5476ZM6.5032 13.9735C6.13748 14.104 5.95104 14.2462 5.7528 14.5457C5.59615 14.7824 5.57366 14.8798 5.57366 15.3208C5.57366 15.7775 5.59244 15.8519 5.7721 16.1078C6.26702 16.8127 7.26656 16.9441 7.88488 16.3855C8.2204 16.0823 8.35724 15.773 8.35724 15.3177C8.35724 14.3258 7.42001 13.6462 6.5032 13.9735ZM12.1098 13.9418C11.7655 14.0528 11.4705 14.2861 11.2934 14.5872C11.0384 15.0211 11.0393 15.6103 11.2958 16.0465C11.5585 16.4935 11.9647 16.7164 12.5163 16.7164C12.8621 16.7164 12.9966 16.6832 13.2479 16.5354C14.1473 16.0068 14.1583 14.6284 13.2673 14.1062C12.9529 13.922 12.4104 13.8449 12.1098 13.9418ZM17.5704 13.9808C17.0162 14.192 16.6884 14.6878 16.6884 15.3149C16.6884 16.6049 18.1671 17.2277 19.0757 16.3204C19.4051 15.9915 19.5147 15.6802 19.4784 15.1773C19.4443 14.7063 19.195 14.3128 18.7883 14.0879C18.4409 13.8958 17.9147 13.8496 17.5704 13.9808ZM6.35593 19.5788C5.45176 19.9795 5.2633 21.2822 6.01415 21.9415C6.48683 22.3565 7.17477 22.4024 7.73475 22.0562C8.63286 21.501 8.56323 20.0981 7.61343 19.611C7.32621 19.4637 6.65437 19.4465 6.35593 19.5788ZM11.897 19.595C10.9174 20.1098 10.8216 21.4251 11.7179 22.055C11.928 22.2026 12.0862 22.2558 12.3787 22.2769C12.8816 22.3133 13.193 22.2037 13.5218 21.8743C14.2122 21.1829 14.0325 20.0583 13.1607 19.6135C12.8509 19.4555 12.1812 19.4456 11.897 19.595ZM17.4381 19.5919C16.8834 19.8941 16.6656 20.2953 16.6988 20.9537C16.7294 21.5587 16.9231 21.8746 17.4139 22.1191C18.6903 22.7552 19.9566 21.4889 19.3205 20.2125C19.0696 19.7089 18.7594 19.5244 18.1273 19.5024C17.7677 19.49 17.5806 19.5142 17.4381 19.5919Z" fill="#D55C18"/>
<path fill-rule="evenodd" clip-rule="evenodd" d="M6.35593 0.11905C6.21252 0.185412 6.01604 0.324135 5.91936 0.427264C5.60522 0.76227 5.54107 1.02029 5.54107 1.94904V2.79858L4.67731 2.80086C4.20228 2.8021 3.57888 2.84493 3.29211 2.89604C2.63475 3.01312 1.85567 3.39278 1.35645 3.83932C0.954759 4.19865 0.479465 4.8725 0.297327 5.34095C-0.000652092 6.10738 1.23829e-08 6.08613 1.23829e-08 15.3149C1.23829e-08 24.5436 -0.000652092 24.5224 0.297327 25.2888C0.776923 26.5222 1.99765 27.5078 3.3307 27.7379C3.80906 27.8205 5.16884 27.8316 12.7824 27.8157C21.0225 27.7984 21.7033 27.7887 22.0553 27.6832C23.4692 27.2598 24.4999 26.217 24.8866 24.819C24.9919 24.4382 25 23.756 25 15.3149C25 6.87374 24.9919 6.19154 24.8866 5.81077C24.499 4.40947 23.4357 3.33704 22.0553 2.95529C21.8101 2.88743 21.2881 2.83808 20.5834 2.81605L19.4915 2.78189V1.94069C19.4915 1.02088 19.4267 0.761553 19.1132 0.427264C18.5235 -0.201615 17.401 -0.116348 16.9076 0.594734C16.7258 0.856925 16.7205 0.888411 16.7 1.83117L16.679 2.79858H12.5163H8.35359L8.3326 1.83117C8.31213 0.888411 8.30685 0.856925 8.12497 0.594734C7.75509 0.0616184 6.9485 -0.155331 6.35593 0.11905ZM20.9817 5.66429C21.5067 5.74017 21.843 5.95692 22.0277 6.33861C22.1397 6.5699 22.1759 6.7993 22.2087 7.48372L22.2496 8.33965H12.5165H2.78344L2.82125 7.48978C2.85189 6.80054 2.88605 6.58404 3.00196 6.34467C3.18038 5.97609 3.53273 5.73489 3.98996 5.66827C4.48775 5.59571 20.4816 5.592 20.9817 5.66429ZM22.2158 17.5476L22.1969 23.9524L22.0423 24.2664C21.8414 24.6745 21.5173 24.888 20.9817 24.9655C20.436 25.0444 4.59661 25.0444 4.05091 24.9655C3.51525 24.888 3.1912 24.6745 2.99029 24.2664L2.83572 23.9524L2.81675 17.5476L2.79772 11.1428H12.5163H22.2349L22.2158 17.5476ZM6.5032 13.9735C6.13748 14.104 5.95104 14.2462 5.7528 14.5457C5.59615 14.7824 5.57366 14.8798 5.57366 15.3208C5.57366 15.7775 5.59244 15.8519 5.7721 16.1078C6.26702 16.8127 7.26656 16.9441 7.88488 16.3855C8.2204 16.0823 8.35724 15.773 8.35724 15.3177C8.35724 14.3258 7.42001 13.6462 6.5032 13.9735ZM12.1098 13.9418C11.7655 14.0528 11.4705 14.2861 11.2934 14.5872C11.0384 15.0211 11.0393 15.6103 11.2958 16.0465C11.5585 16.4935 11.9647 16.7164 12.5163 16.7164C12.8621 16.7164 12.9966 16.6832 13.2479 16.5354C14.1473 16.0068 14.1583 14.6284 13.2673 14.1062C12.9529 13.922 12.4104 13.8449 12.1098 13.9418ZM17.5704 13.9808C17.0162 14.192 16.6884 14.6878 16.6884 15.3149C16.6884 16.6049 18.1671 17.2277 19.0757 16.3204C19.4051 15.9915 19.5147 15.6802 19.4784 15.1773C19.4443 14.7063 19.195 14.3128 18.7883 14.0879C18.4409 13.8958 17.9147 13.8496 17.5704 13.9808ZM6.35593 19.5788C5.45176 19.9795 5.2633 21.2822 6.01415 21.9415C6.48683 22.3565 7.17477 22.4024 7.73475 22.0562C8.63286 21.501 8.56323 20.0981 7.61343 19.611C7.32621 19.4637 6.65437 19.4465 6.35593 19.5788ZM11.897 19.595C10.9174 20.1098 10.8216 21.4251 11.7179 22.055C11.928 22.2026 12.0862 22.2558 12.3787 22.2769C12.8816 22.3133 13.193 22.2037 13.5218 21.8743C14.2122 21.1829 14.0325 20.0583 13.1607 19.6135C12.8509 19.4555 12.1812 19.4456 11.897 19.595ZM17.4381 19.5919C16.8834 19.8941 16.6656 20.2953 16.6988 20.9537C16.7294 21.5587 16.9231 21.8746 17.4139 22.1191C18.6903 22.7552 19.9566 21.4889 19.3205 20.2125C19.0696 19.7089 18.7594 19.5244 18.1273 19.5024C17.7677 19.49 17.5806 19.5142 17.4381 19.5919Z" fill="#D55C18"/>
<path fill-rule="evenodd" clip-rule="evenodd" d="M6.35593 0.11905C6.21252 0.185412 6.01604 0.324135 5.91936 0.427264C5.60522 0.76227 5.54107 1.02029 5.54107 1.94904V2.79858L4.67731 2.80086C4.20228 2.8021 3.57888 2.84493 3.29211 2.89604C2.63475 3.01312 1.85567 3.39278 1.35645 3.83932C0.954759 4.19865 0.479465 4.8725 0.297327 5.34095C-0.000652092 6.10738 1.23829e-08 6.08613 1.23829e-08 15.3149C1.23829e-08 24.5436 -0.000652092 24.5224 0.297327 25.2888C0.776923 26.5222 1.99765 27.5078 3.3307 27.7379C3.80906 27.8205 5.16884 27.8316 12.7824 27.8157C21.0225 27.7984 21.7033 27.7887 22.0553 27.6832C23.4692 27.2598 24.4999 26.217 24.8866 24.819C24.9919 24.4382 25 23.756 25 15.3149C25 6.87374 24.9919 6.19154 24.8866 5.81077C24.499 4.40947 23.4357 3.33704 22.0553 2.95529C21.8101 2.88743 21.2881 2.83808 20.5834 2.81605L19.4915 2.78189V1.94069C19.4915 1.02088 19.4267 0.761553 19.1132 0.427264C18.5235 -0.201615 17.401 -0.116348 16.9076 0.594734C16.7258 0.856925 16.7205 0.888411 16.7 1.83117L16.679 2.79858H12.5163H8.35359L8.3326 1.83117C8.31213 0.888411 8.30685 0.856925 8.12497 0.594734C7.75509 0.0616184 6.9485 -0.155331 6.35593 0.11905ZM20.9817 5.66429C21.5067 5.74017 21.843 5.95692 22.0277 6.33861C22.1397 6.5699 22.1759 6.7993 22.2087 7.48372L22.2496 8.33965H12.5165H2.78344L2.82125 7.48978C2.85189 6.80054 2.88605 6.58404 3.00196 6.34467C3.18038 5.97609 3.53273 5.73489 3.98996 5.66827C4.48775 5.59571 20.4816 5.592 20.9817 5.66429ZM22.2158 17.5476L22.1969 23.9524L22.0423 24.2664C21.8414 24.6745 21.5173 24.888 20.9817 24.9655C20.436 25.0444 4.59661 25.0444 4.05091 24.9655C3.51525 24.888 3.1912 24.6745 2.99029 24.2664L2.83572 23.9524L2.81675 17.5476L2.79772 11.1428H12.5163H22.2349L22.2158 17.5476ZM6.5032 13.9735C6.13748 14.104 5.95104 14.2462 5.7528 14.5457C5.59615 14.7824 5.57366 14.8798 5.57366 15.3208C5.57366 15.7775 5.59244 15.8519 5.7721 16.1078C6.26702 16.8127 7.26656 16.9441 7.88488 16.3855C8.2204 16.0823 8.35724 15.773 8.35724 15.3177C8.35724 14.3258 7.42001 13.6462 6.5032 13.9735ZM12.1098 13.9418C11.7655 14.0528 11.4705 14.2861 11.2934 14.5872C11.0384 15.0211 11.0393 15.6103 11.2958 16.0465C11.5585 16.4935 11.9647 16.7164 12.5163 16.7164C12.8621 16.7164 12.9966 16.6832 13.2479 16.5354C14.1473 16.0068 14.1583 14.6284 13.2673 14.1062C12.9529 13.922 12.4104 13.8449 12.1098 13.9418ZM17.5704 13.9808C17.0162 14.192 16.6884 14.6878 16.6884 15.3149C16.6884 16.6049 18.1671 17.2277 19.0757 16.3204C19.4051 15.9915 19.5147 15.6802 19.4784 15.1773C19.4443 14.7063 19.195 14.3128 18.7883 14.0879C18.4409 13.8958 17.9147 13.8496 17.5704 13.9808ZM6.35593 19.5788C5.45176 19.9795 5.2633 21.2822 6.01415 21.9415C6.48683 22.3565 7.17477 22.4024 7.73475 22.0562C8.63286 21.501 8.56323 20.0981 7.61343 19.611C7.32621 19.4637 6.65437 19.4465 6.35593 19.5788ZM11.897 19.595C10.9174 20.1098 10.8216 21.4251 11.7179 22.055C11.928 22.2026 12.0862 22.2558 12.3787 22.2769C12.8816 22.3133 13.193 22.2037 13.5218 21.8743C14.2122 21.1829 14.0325 20.0583 13.1607 19.6135C12.8509 19.4555 12.1812 19.4456 11.897 19.595ZM17.4381 19.5919C16.8834 19.8941 16.6656 20.2953 16.6988 20.9537C16.7294 21.5587 16.9231 21.8746 17.4139 22.1191C18.6903 22.7552 19.9566 21.4889 19.3205 20.2125C19.0696 19.7089 18.7594 19.5244 18.1273 19.5024C17.7677 19.49 17.5806 19.5142 17.4381 19.5919Z" fill="#D55C18"/>
<path fill-rule="evenodd" clip-rule="evenodd" d="M6.35593 0.11905C6.21252 0.185412 6.01604 0.324135 5.91936 0.427264C5.60522 0.76227 5.54107 1.02029 5.54107 1.94904V2.79858L4.67731 2.80086C4.20228 2.8021 3.57888 2.84493 3.29211 2.89604C2.63475 3.01312 1.85567 3.39278 1.35645 3.83932C0.954759 4.19865 0.479465 4.8725 0.297327 5.34095C-0.000652092 6.10738 1.23829e-08 6.08613 1.23829e-08 15.3149C1.23829e-08 24.5436 -0.000652092 24.5224 0.297327 25.2888C0.776923 26.5222 1.99765 27.5078 3.3307 27.7379C3.80906 27.8205 5.16884 27.8316 12.7824 27.8157C21.0225 27.7984 21.7033 27.7887 22.0553 27.6832C23.4692 27.2598 24.4999 26.217 24.8866 24.819C24.9919 24.4382 25 23.756 25 15.3149C25 6.87374 24.9919 6.19154 24.8866 5.81077C24.499 4.40947 23.4357 3.33704 22.0553 2.95529C21.8101 2.88743 21.2881 2.83808 20.5834 2.81605L19.4915 2.78189V1.94069C19.4915 1.02088 19.4267 0.761553 19.1132 0.427264C18.5235 -0.201615 17.401 -0.116348 16.9076 0.594734C16.7258 0.856925 16.7205 0.888411 16.7 1.83117L16.679 2.79858H12.5163H8.35359L8.3326 1.83117C8.31213 0.888411 8.30685 0.856925 8.12497 0.594734C7.75509 0.0616184 6.9485 -0.155331 6.35593 0.11905ZM20.9817 5.66429C21.5067 5.74017 21.843 5.95692 22.0277 6.33861C22.1397 6.5699 22.1759 6.7993 22.2087 7.48372L22.2496 8.33965H12.5165H2.78344L2.82125 7.48978C2.85189 6.80054 2.88605 6.58404 3.00196 6.34467C3.18038 5.97609 3.53273 5.73489 3.98996 5.66827C4.48775 5.59571 20.4816 5.592 20.9817 5.66429ZM22.2158 17.5476L22.1969 23.9524L22.0423 24.2664C21.8414 24.6745 21.5173 24.888 20.9817 24.9655C20.436 25.0444 4.59661 25.0444 4.05091 24.9655C3.51525 24.888 3.1912 24.6745 2.99029 24.2664L2.83572 23.9524L2.81675 17.5476L2.79772 11.1428H12.5163H22.2349L22.2158 17.5476ZM6.5032 13.9735C6.13748 14.104 5.95104 14.2462 5.7528 14.5457C5.59615 14.7824 5.57366 14.8798 5.57366 15.3208C5.57366 15.7775 5.59244 15.8519 5.7721 16.1078C6.26702 16.8127 7.26656 16.9441 7.88488 16.3855C8.2204 16.0823 8.35724 15.773 8.35724 15.3177C8.35724 14.3258 7.42001 13.6462 6.5032 13.9735ZM12.1098 13.9418C11.7655 14.0528 11.4705 14.2861 11.2934 14.5872C11.0384 15.0211 11.0393 15.6103 11.2958 16.0465C11.5585 16.4935 11.9647 16.7164 12.5163 16.7164C12.8621 16.7164 12.9966 16.6832 13.2479 16.5354C14.1473 16.0068 14.1583 14.6284 13.2673 14.1062C12.9529 13.922 12.4104 13.8449 12.1098 13.9418ZM17.5704 13.9808C17.0162 14.192 16.6884 14.6878 16.6884 15.3149C16.6884 16.6049 18.1671 17.2277 19.0757 16.3204C19.4051 15.9915 19.5147 15.6802 19.4784 15.1773C19.4443 14.7063 19.195 14.3128 18.7883 14.0879C18.4409 13.8958 17.9147 13.8496 17.5704 13.9808ZM6.35593 19.5788C5.45176 19.9795 5.2633 21.2822 6.01415 21.9415C6.48683 22.3565 7.17477 22.4024 7.73475 22.0562C8.63286 21.501 8.56323 20.0981 7.61343 19.611C7.32621 19.4637 6.65437 19.4465 6.35593 19.5788ZM11.897 19.595C10.9174 20.1098 10.8216 21.4251 11.7179 22.055C11.928 22.2026 12.0862 22.2558 12.3787 22.2769C12.8816 22.3133 13.193 22.2037 13.5218 21.8743C14.2122 21.1829 14.0325 20.0583 13.1607 19.6135C12.8509 19.4555 12.1812 19.4456 11.897 19.595ZM17.4381 19.5919C16.8834 19.8941 16.6656 20.2953 16.6988 20.9537C16.7294 21.5587 16.9231 21.8746 17.4139 22.1191C18.6903 22.7552 19.9566 21.4889 19.3205 20.2125C19.0696 19.7089 18.7594 19.5244 18.1273 19.5024C17.7677 19.49 17.5806 19.5142 17.4381 19.5919Z" fill="#D55C18"/>
<path fill-rule="evenodd" clip-rule="evenodd" d="M6.35593 0.11905C6.21252 0.185412 6.01604 0.324135 5.91936 0.427264C5.60522 0.76227 5.54107 1.02029 5.54107 1.94904V2.79858L4.67731 2.80086C4.20228 2.8021 3.57888 2.84493 3.29211 2.89604C2.63475 3.01312 1.85567 3.39278 1.35645 3.83932C0.954759 4.19865 0.479465 4.8725 0.297327 5.34095C-0.000652092 6.10738 1.23829e-08 6.08613 1.23829e-08 15.3149C1.23829e-08 24.5436 -0.000652092 24.5224 0.297327 25.2888C0.776923 26.5222 1.99765 27.5078 3.3307 27.7379C3.80906 27.8205 5.16884 27.8316 12.7824 27.8157C21.0225 27.7984 21.7033 27.7887 22.0553 27.6832C23.4692 27.2598 24.4999 26.217 24.8866 24.819C24.9919 24.4382 25 23.756 25 15.3149C25 6.87374 24.9919 6.19154 24.8866 5.81077C24.499 4.40947 23.4357 3.33704 22.0553 2.95529C21.8101 2.88743 21.2881 2.83808 20.5834 2.81605L19.4915 2.78189V1.94069C19.4915 1.02088 19.4267 0.761553 19.1132 0.427264C18.5235 -0.201615 17.401 -0.116348 16.9076 0.594734C16.7258 0.856925 16.7205 0.888411 16.7 1.83117L16.679 2.79858H12.5163H8.35359L8.3326 1.83117C8.31213 0.888411 8.30685 0.856925 8.12497 0.594734C7.75509 0.0616184 6.9485 -0.155331 6.35593 0.11905ZM20.9817 5.66429C21.5067 5.74017 21.843 5.95692 22.0277 6.33861C22.1397 6.5699 22.1759 6.7993 22.2087 7.48372L22.2496 8.33965H12.5165H2.78344L2.82125 7.48978C2.85189 6.80054 2.88605 6.58404 3.00196 6.34467C3.18038 5.97609 3.53273 5.73489 3.98996 5.66827C4.48775 5.59571 20.4816 5.592 20.9817 5.66429ZM22.2158 17.5476L22.1969 23.9524L22.0423 24.2664C21.8414 24.6745 21.5173 24.888 20.9817 24.9655C20.436 25.0444 4.59661 25.0444 4.05091 24.9655C3.51525 24.888 3.1912 24.6745 2.99029 24.2664L2.83572 23.9524L2.81675 17.5476L2.79772 11.1428H12.5163H22.2349L22.2158 17.5476ZM6.5032 13.9735C6.13748 14.104 5.95104 14.2462 5.7528 14.5457C5.59615 14.7824 5.57366 14.8798 5.57366 15.3208C5.57366 15.7775 5.59244 15.8519 5.7721 16.1078C6.26702 16.8127 7.26656 16.9441 7.88488 16.3855C8.2204 16.0823 8.35724 15.773 8.35724 15.3177C8.35724 14.3258 7.42001 13.6462 6.5032 13.9735ZM12.1098 13.9418C11.7655 14.0528 11.4705 14.2861 11.2934 14.5872C11.0384 15.0211 11.0393 15.6103 11.2958 16.0465C11.5585 16.4935 11.9647 16.7164 12.5163 16.7164C12.8621 16.7164 12.9966 16.6832 13.2479 16.5354C14.1473 16.0068 14.1583 14.6284 13.2673 14.1062C12.9529 13.922 12.4104 13.8449 12.1098 13.9418ZM17.5704 13.9808C17.0162 14.192 16.6884 14.6878 16.6884 15.3149C16.6884 16.6049 18.1671 17.2277 19.0757 16.3204C19.4051 15.9915 19.5147 15.6802 19.4784 15.1773C19.4443 14.7063 19.195 14.3128 18.7883 14.0879C18.4409 13.8958 17.9147 13.8496 17.5704 13.9808ZM6.35593 19.5788C5.45176 19.9795 5.2633 21.2822 6.01415 21.9415C6.48683 22.3565 7.17477 22.4024 7.73475 22.0562C8.63286 21.501 8.56323 20.0981 7.61343 19.611C7.32621 19.4637 6.65437 19.4465 6.35593 19.5788ZM11.897 19.595C10.9174 20.1098 10.8216 21.4251 11.7179 22.055C11.928 22.2026 12.0862 22.2558 12.3787 22.2769C12.8816 22.3133 13.193 22.2037 13.5218 21.8743C14.2122 21.1829 14.0325 20.0583 13.1607 19.6135C12.8509 19.4555 12.1812 19.4456 11.897 19.595ZM17.4381 19.5919C16.8834 19.8941 16.6656 20.2953 16.6988 20.9537C16.7294 21.5587 16.9231 21.8746 17.4139 22.1191C18.6903 22.7552 19.9566 21.4889 19.3205 20.2125C19.0696 19.7089 18.7594 19.5244 18.1273 19.5024C17.7677 19.49 17.5806 19.5142 17.4381 19.5919Z" fill="#D55C18"/>
<path fill-rule="evenodd" clip-rule="evenodd" d="M6.35593 0.11905C6.21252 0.185412 6.01604 0.324135 5.91936 0.427264C5.60522 0.76227 5.54107 1.02029 5.54107 1.94904V2.79858L4.67731 2.80086C4.20228 2.8021 3.57888 2.84493 3.29211 2.89604C2.63475 3.01312 1.85567 3.39278 1.35645 3.83932C0.954759 4.19865 0.479465 4.8725 0.297327 5.34095C-0.000652092 6.10738 1.23829e-08 6.08613 1.23829e-08 15.3149C1.23829e-08 24.5436 -0.000652092 24.5224 0.297327 25.2888C0.776923 26.5222 1.99765 27.5078 3.3307 27.7379C3.80906 27.8205 5.16884 27.8316 12.7824 27.8157C21.0225 27.7984 21.7033 27.7887 22.0553 27.6832C23.4692 27.2598 24.4999 26.217 24.8866 24.819C24.9919 24.4382 25 23.756 25 15.3149C25 6.87374 24.9919 6.19154 24.8866 5.81077C24.499 4.40947 23.4357 3.33704 22.0553 2.95529C21.8101 2.88743 21.2881 2.83808 20.5834 2.81605L19.4915 2.78189V1.94069C19.4915 1.02088 19.4267 0.761553 19.1132 0.427264C18.5235 -0.201615 17.401 -0.116348 16.9076 0.594734C16.7258 0.856925 16.7205 0.888411 16.7 1.83117L16.679 2.79858H12.5163H8.35359L8.3326 1.83117C8.31213 0.888411 8.30685 0.856925 8.12497 0.594734C7.75509 0.0616184 6.9485 -0.155331 6.35593 0.11905ZM20.9817 5.66429C21.5067 5.74017 21.843 5.95692 22.0277 6.33861C22.1397 6.5699 22.1759 6.7993 22.2087 7.48372L22.2496 8.33965H12.5165H2.78344L2.82125 7.48978C2.85189 6.80054 2.88605 6.58404 3.00196 6.34467C3.18038 5.97609 3.53273 5.73489 3.98996 5.66827C4.48775 5.59571 20.4816 5.592 20.9817 5.66429ZM22.2158 17.5476L22.1969 23.9524L22.0423 24.2664C21.8414 24.6745 21.5173 24.888 20.9817 24.9655C20.436 25.0444 4.59661 25.0444 4.05091 24.9655C3.51525 24.888 3.1912 24.6745 2.99029 24.2664L2.83572 23.9524L2.81675 17.5476L2.79772 11.1428H12.5163H22.2349L22.2158 17.5476ZM6.5032 13.9735C6.13748 14.104 5.95104 14.2462 5.7528 14.5457C5.59615 14.7824 5.57366 14.8798 5.57366 15.3208C5.57366 15.7775 5.59244 15.8519 5.7721 16.1078C6.26702 16.8127 7.26656 16.9441 7.88488 16.3855C8.2204 16.0823 8.35724 15.773 8.35724 15.3177C8.35724 14.3258 7.42001 13.6462 6.5032 13.9735ZM12.1098 13.9418C11.7655 14.0528 11.4705 14.2861 11.2934 14.5872C11.0384 15.0211 11.0393 15.6103 11.2958 16.0465C11.5585 16.4935 11.9647 16.7164 12.5163 16.7164C12.8621 16.7164 12.9966 16.6832 13.2479 16.5354C14.1473 16.0068 14.1583 14.6284 13.2673 14.1062C12.9529 13.922 12.4104 13.8449 12.1098 13.9418ZM17.5704 13.9808C17.0162 14.192 16.6884 14.6878 16.6884 15.3149C16.6884 16.6049 18.1671 17.2277 19.0757 16.3204C19.4051 15.9915 19.5147 15.6802 19.4784 15.1773C19.4443 14.7063 19.195 14.3128 18.7883 14.0879C18.4409 13.8958 17.9147 13.8496 17.5704 13.9808ZM6.35593 19.5788C5.45176 19.9795 5.2633 21.2822 6.01415 21.9415C6.48683 22.3565 7.17477 22.4024 7.73475 22.0562C8.63286 21.501 8.56323 20.0981 7.61343 19.611C7.32621 19.4637 6.65437 19.4465 6.35593 19.5788ZM11.897 19.595C10.9174 20.1098 10.8216 21.4251 11.7179 22.055C11.928 22.2026 12.0862 22.2558 12.3787 22.2769C12.8816 22.3133 13.193 22.2037 13.5218 21.8743C14.2122 21.1829 14.0325 20.0583 13.1607 19.6135C12.8509 19.4555 12.1812 19.4456 11.897 19.595ZM17.4381 19.5919C16.8834 19.8941 16.6656 20.2953 16.6988 20.9537C16.7294 21.5587 16.9231 21.8746 17.4139 22.1191C18.6903 22.7552 19.9566 21.4889 19.3205 20.2125C19.0696 19.7089 18.7594 19.5244 18.1273 19.5024C17.7677 19.49 17.5806 19.5142 17.4381 19.5919Z" fill="#D55C18"/>
<path fill-rule="evenodd" clip-rule="evenodd" d="M6.35593 0.11905C6.21252 0.185412 6.01604 0.324135 5.91936 0.427264C5.60522 0.76227 5.54107 1.02029 5.54107 1.94904V2.79858L4.67731 2.80086C4.20228 2.8021 3.57888 2.84493 3.29211 2.89604C2.63475 3.01312 1.85567 3.39278 1.35645 3.83932C0.954759 4.19865 0.479465 4.8725 0.297327 5.34095C-0.000652092 6.10738 1.23829e-08 6.08613 1.23829e-08 15.3149C1.23829e-08 24.5436 -0.000652092 24.5224 0.297327 25.2888C0.776923 26.5222 1.99765 27.5078 3.3307 27.7379C3.80906 27.8205 5.16884 27.8316 12.7824 27.8157C21.0225 27.7984 21.7033 27.7887 22.0553 27.6832C23.4692 27.2598 24.4999 26.217 24.8866 24.819C24.9919 24.4382 25 23.756 25 15.3149C25 6.87374 24.9919 6.19154 24.8866 5.81077C24.499 4.40947 23.4357 3.33704 22.0553 2.95529C21.8101 2.88743 21.2881 2.83808 20.5834 2.81605L19.4915 2.78189V1.94069C19.4915 1.02088 19.4267 0.761553 19.1132 0.427264C18.5235 -0.201615 17.401 -0.116348 16.9076 0.594734C16.7258 0.856925 16.7205 0.888411 16.7 1.83117L16.679 2.79858H12.5163H8.35359L8.3326 1.83117C8.31213 0.888411 8.30685 0.856925 8.12497 0.594734C7.75509 0.0616184 6.9485 -0.155331 6.35593 0.11905ZM20.9817 5.66429C21.5067 5.74017 21.843 5.95692 22.0277 6.33861C22.1397 6.5699 22.1759 6.7993 22.2087 7.48372L22.2496 8.33965H12.5165H2.78344L2.82125 7.48978C2.85189 6.80054 2.88605 6.58404 3.00196 6.34467C3.18038 5.97609 3.53273 5.73489 3.98996 5.66827C4.48775 5.59571 20.4816 5.592 20.9817 5.66429ZM22.2158 17.5476L22.1969 23.9524L22.0423 24.2664C21.8414 24.6745 21.5173 24.888 20.9817 24.9655C20.436 25.0444 4.59661 25.0444 4.05091 24.9655C3.51525 24.888 3.1912 24.6745 2.99029 24.2664L2.83572 23.9524L2.81675 17.5476L2.79772 11.1428H12.5163H22.2349L22.2158 17.5476ZM6.5032 13.9735C6.13748 14.104 5.95104 14.2462 5.7528 14.5457C5.59615 14.7824 5.57366 14.8798 5.57366 15.3208C5.57366 15.7775 5.59244 15.8519 5.7721 16.1078C6.26702 16.8127 7.26656 16.9441 7.88488 16.3855C8.2204 16.0823 8.35724 15.773 8.35724 15.3177C8.35724 14.3258 7.42001 13.6462 6.5032 13.9735ZM12.1098 13.9418C11.7655 14.0528 11.4705 14.2861 11.2934 14.5872C11.0384 15.0211 11.0393 15.6103 11.2958 16.0465C11.5585 16.4935 11.9647 16.7164 12.5163 16.7164C12.8621 16.7164 12.9966 16.6832 13.2479 16.5354C14.1473 16.0068 14.1583 14.6284 13.2673 14.1062C12.9529 13.922 12.4104 13.8449 12.1098 13.9418ZM17.5704 13.9808C17.0162 14.192 16.6884 14.6878 16.6884 15.3149C16.6884 16.6049 18.1671 17.2277 19.0757 16.3204C19.4051 15.9915 19.5147 15.6802 19.4784 15.1773C19.4443 14.7063 19.195 14.3128 18.7883 14.0879C18.4409 13.8958 17.9147 13.8496 17.5704 13.9808ZM6.35593 19.5788C5.45176 19.9795 5.2633 21.2822 6.01415 21.9415C6.48683 22.3565 7.17477 22.4024 7.73475 22.0562C8.63286 21.501 8.56323 20.0981 7.61343 19.611C7.32621 19.4637 6.65437 19.4465 6.35593 19.5788ZM11.897 19.595C10.9174 20.1098 10.8216 21.4251 11.7179 22.055C11.928 22.2026 12.0862 22.2558 12.3787 22.2769C12.8816 22.3133 13.193 22.2037 13.5218 21.8743C14.2122 21.1829 14.0325 20.0583 13.1607 19.6135C12.8509 19.4555 12.1812 19.4456 11.897 19.595ZM17.4381 19.5919C16.8834 19.8941 16.6656 20.2953 16.6988 20.9537C16.7294 21.5587 16.9231 21.8746 17.4139 22.1191C18.6903 22.7552 19.9566 21.4889 19.3205 20.2125C19.0696 19.7089 18.7594 19.5244 18.1273 19.5024C17.7677 19.49 17.5806 19.5142 17.4381 19.5919Z" fill="#D55C18"/>
</svg>
