<svg width="17" height="16" viewBox="0 0 17 16" fill="none" xmlns="http://www.w3.org/2000/svg">
<path d="M15 4.37609H12.2594C12.2898 4.35031 12.3211 4.32531 12.3508 4.29797C12.5881 4.08717 12.7793 3.82968 12.9125 3.5416C13.0457 3.25352 13.1181 2.94106 13.125 2.62375C13.1353 2.27662 13.0745 1.93105 12.9463 1.60827C12.8182 1.28548 12.6255 0.99229 12.38 0.746689C12.1344 0.501087 11.8413 0.308259 11.5186 0.180044C11.1958 0.0518289 10.8503 -0.00906843 10.5031 0.00109074C10.1857 0.00792812 9.87307 0.0802196 9.58485 0.21344C9.29663 0.34666 9.03901 0.537941 8.82812 0.77531C8.53631 1.11351 8.29908 1.49519 8.125 1.90656C7.95092 1.49519 7.71369 1.11351 7.42188 0.77531C7.21099 0.537941 6.95337 0.34666 6.66515 0.21344C6.37693 0.0802196 6.06432 0.00792812 5.74687 0.00109074C5.39974 -0.00906843 5.0542 0.0518289 4.73145 0.180044C4.4087 0.308259 4.11557 0.501087 3.87004 0.746689C3.62451 0.99229 3.43177 1.28548 3.30365 1.60827C3.17553 1.93105 3.11474 2.27662 3.125 2.62375C3.13194 2.94106 3.20429 3.25352 3.3375 3.5416C3.47072 3.82968 3.66195 4.08717 3.89922 4.29797C3.92891 4.32375 3.96016 4.34875 3.99063 4.37609H1.25C0.918479 4.37609 0.600537 4.50779 0.366116 4.74221C0.131696 4.97663 0 5.29457 0 5.62609V8.12609C0 8.45761 0.131696 8.77555 0.366116 9.00997C0.600537 9.24439 0.918479 9.37609 1.25 9.37609V14.3761C1.25 14.7076 1.3817 15.0256 1.61612 15.26C1.85054 15.4944 2.16848 15.6261 2.5 15.6261H7.1875C7.27038 15.6261 7.34987 15.5932 7.40847 15.5346C7.46708 15.476 7.5 15.3965 7.5 15.3136V8.12609H1.25V5.62609H7.5V8.12609H8.75V5.62609H15V8.12609H8.75V15.3136C8.75 15.3965 8.78292 15.476 8.84153 15.5346C8.90013 15.5932 8.97962 15.6261 9.0625 15.6261H13.75C14.0815 15.6261 14.3995 15.4944 14.6339 15.26C14.8683 15.0256 15 14.7076 15 14.3761V9.37609C15.3315 9.37609 15.6495 9.24439 15.8839 9.00997C16.1183 8.77555 16.25 8.45761 16.25 8.12609V5.62609C16.25 5.29457 16.1183 4.97663 15.8839 4.74221C15.6495 4.50779 15.3315 4.37609 15 4.37609ZM4.72734 3.36047C4.61806 3.26151 4.53042 3.14102 4.46992 3.00658C4.40942 2.87214 4.37737 2.72664 4.37578 2.57922C4.37183 2.40648 4.40239 2.2347 4.46568 2.07393C4.52896 1.91316 4.6237 1.76664 4.74433 1.64295C4.86497 1.51926 5.00908 1.42088 5.16821 1.3536C5.32735 1.28631 5.49832 1.25146 5.67109 1.25109H5.70938C5.8568 1.25268 6.00229 1.28473 6.13674 1.34523C6.27118 1.40573 6.39167 1.49337 6.49063 1.60265C7.14609 2.34328 7.37734 3.5714 7.45859 4.33078C6.69609 4.25031 5.46875 4.01906 4.72734 3.36047ZM11.5242 3.36047C10.7828 4.01672 9.55234 4.24797 8.78984 4.32922C8.88281 3.50812 9.14062 2.30578 9.76562 1.60343C9.86458 1.49415 9.98507 1.40651 10.1195 1.34601C10.254 1.28551 10.3995 1.25346 10.5469 1.25187H10.5852C10.7579 1.25295 10.9288 1.28851 11.0876 1.35646C11.2465 1.42441 11.3902 1.52339 11.5104 1.64759C11.6305 1.77179 11.7246 1.91872 11.7872 2.07977C11.8498 2.24081 11.8797 2.41274 11.875 2.58547C11.8725 2.73189 11.8399 2.87622 11.7793 3.00953C11.7187 3.14284 11.6313 3.26229 11.5227 3.36047H11.5242Z" fill="url(#paint0_linear_4512_8496)"/>
<defs>
<linearGradient id="paint0_linear_4512_8496" x1="16.25" y1="6.36739" x2="3.08173" y2="12.4265" gradientUnits="userSpaceOnUse">
<stop offset="0.200977" stop-color="#FFA200"/>
<stop offset="1" stop-color="#C83900"/>
</linearGradient>
</defs>
</svg>
